<svg width="120" height="76" viewBox="0 0 120 76" fill="none" xmlns="http://www.w3.org/2000/svg">
<path d="M84.4884 7.6012C67.9946 7.45553 54.401 20.6055 53.8696 37.2209C53.8696 37.4293 53.8696 37.6487 53.8696 37.8682C53.8696 37.8682 53.8696 37.9669 53.8696 38.0217C53.8576 48.4006 45.5039 56.8068 35.2059 56.8028C24.9079 56.7988 16.5607 48.386 16.5567 38.0071C16.5527 27.6282 24.8934 19.2089 35.1914 19.1968C38.5624 19.1872 41.8716 20.1092 44.7591 21.8625C45.435 22.2368 46.2792 22.0759 46.7728 21.4786C48.4925 19.2845 50.4191 17.3757 52.2151 15.1049C52.5095 14.723 52.6323 14.2346 52.5537 13.7575C52.4752 13.2805 52.2025 12.8582 51.8015 12.5927C41.083 5.50145 27.0879 6.0148 16.9092 13.8725C6.73059 21.7303 2.59341 35.2148 6.59458 47.4916C10.5957 59.7685 21.8606 68.1541 34.6798 68.3984C51.1924 68.5682 64.8154 55.413 65.353 38.7787C65.353 38.5483 65.353 38.3179 65.353 38.0766C65.353 38.0766 65.353 38.0108 65.353 37.9669C65.328 29.3944 71.0399 21.8823 79.2594 19.6774C87.4789 17.4726 96.1403 21.1292 100.347 28.5799C104.553 36.0307 103.248 45.4031 97.1679 51.3983C91.0884 57.3936 81.7628 58.505 74.4635 54.1041C73.7868 53.7257 72.9391 53.8819 72.439 54.4771C70.7301 56.6712 68.7926 58.591 66.9966 60.8618C66.7054 61.2448 66.5846 61.7323 66.663 62.2083C66.7414 62.6843 67.0119 63.1063 67.4102 63.374C78.1302 70.4983 92.1504 70.001 102.347 62.1347C112.543 54.2684 116.68 40.7581 112.656 28.4685C108.631 16.1788 97.3276 7.80477 84.4884 7.6012Z" fill="#21DB6B"/>
</svg>
