<svg width="98" height="25" viewBox="0 0 98 25" fill="none" xmlns="http://www.w3.org/2000/svg">
<g clip-path="url(#clip0_12692_5766)">
<path d="M0.000488281 23.1244V0.858154H10.8034V15.5839H23.9913V23.1222H0.000488281V23.1244Z" fill="white"/>
<path d="M61.4854 23.1244H48.1394L38.0353 12.1186V23.1244H27.2324V0.858154H38.0353V10.8458L47.7911 0.858154H60.947L49.0948 11.4489L61.4854 23.1244Z" fill="white"/>
<path d="M97.4266 25H85.2879L82.6508 22.5507C81.0309 23.4084 77.947 24.0139 74.9295 24.0139C64.8255 24.0139 58.8203 19.4661 58.8203 11.7994C58.818 4.38951 65.4281 0 76.5815 0C87.6066 0 94.1525 4.42161 94.1525 11.8315C94.1525 14.6615 93.1031 17.175 91.1648 19.1794L97.4266 25ZM76.3592 17.081C80.8385 17.081 83.1915 15.3312 83.1915 11.992C83.1915 8.68498 80.8729 6.93514 76.4555 6.93514C72.0702 6.93514 69.7515 8.71709 69.7515 12.0883C69.7492 15.3633 72.0381 17.081 76.3592 17.081Z" fill="white"/>
</g>
<defs>
<clipPath id="clip0_12692_5766">
<rect width="97.4265" height="25" fill="white"/>
</clipPath>
</defs>
</svg>
