<?xml version="1.0" standalone="no"?>
<!DOCTYPE svg PUBLIC "-//W3C//DTD SVG 20010904//EN"
 "http://www.w3.org/TR/2001/REC-SVG-20010904/DTD/svg10.dtd">
<svg version="1.0" xmlns="http://www.w3.org/2000/svg"
 width="507.000000pt" height="112.000000pt" viewBox="0 0 507.000000 112.000000"
 preserveAspectRatio="xMidYMid meet">

<g transform="translate(0.000000,112.000000) scale(0.100000,-0.100000)"
fill="#000000" stroke="none">
<path d="M3550 1040 c-12 -12 -20 -31 -18 -43 2 -18 9 -22 33 -20 33 3 68 37
63 62 -5 25 -53 26 -78 1z"/>
<path d="M3672 1044 c-25 -17 -30 -62 -8 -70 35 -13 99 47 81 76 -9 15 -48 12
-73 -6z"/>
<path d="M3785 1035 c-29 -28 -31 -38 -10 -55 12 -10 21 -10 40 -2 29 13 59
57 50 72 -11 18 -55 11 -80 -15z"/>
<path d="M3498 863 c-24 -28 -28 -40 -22 -57 10 -25 51 -19 71 10 28 43 -15
86 -49 47z"/>
<path d="M3610 860 c-29 -29 -23 -64 11 -68 32 -4 51 18 47 55 -4 35 -30 41
-58 13z"/>
<path d="M3730 860 c-29 -29 -23 -64 11 -68 32 -4 51 18 47 55 -4 35 -30 41
-58 13z"/>
<path d="M920 815 c0 -3 -1 -105 -1 -227 l0 -223 46 -3 45 -3 0 230 0 231 -45
0 c-25 0 -45 -2 -45 -5z"/>
<path d="M1080 590 l0 -230 45 0 45 0 0 49 c0 32 -7 62 -20 83 -19 33 -19 34
0 63 17 26 20 48 20 148 l0 117 -45 0 -45 0 0 -230z"/>
<path d="M2050 590 l0 -230 45 0 45 0 0 51 c0 30 -7 63 -17 80 -16 27 -16 31
0 64 13 27 17 63 17 150 l0 115 -45 0 -45 0 0 -230z"/>
<path d="M2730 590 l0 -230 45 0 45 0 0 230 0 230 -45 0 -45 0 0 -230z"/>
<path d="M3930 590 l0 -230 110 0 c123 0 164 11 198 55 37 46 27 139 -17 172
-14 10 -13 14 8 37 32 34 35 103 5 143 -30 40 -74 52 -196 52 l-108 1 0 -230z
m212 133 c23 -21 23 -55 -1 -77 -14 -12 -32 -16 -67 -14 -49 3 -49 3 -52 42
-2 21 -1 44 2 52 8 20 94 18 118 -3z m3 -188 c30 -29 31 -49 4 -76 -16 -16
-30 -19 -72 -17 l-52 3 -3 44 c-5 64 1 71 53 71 35 0 52 -6 70 -25z"/>
<path d="M4330 590 l0 -230 110 0 c155 0 204 23 224 103 9 38 -10 103 -35 121
l-21 14 21 21 c41 41 40 120 -3 160 -33 31 -78 41 -193 41 l-103 0 0 -230z
m212 133 c45 -40 9 -93 -64 -93 l-48 0 0 55 0 55 47 0 c29 0 53 -6 65 -17z
m15 -189 c18 -24 16 -54 -4 -76 -12 -13 -30 -18 -70 -18 l-53 0 0 53 c0 30 3
57 8 61 14 15 105 0 119 -20z"/>
<path d="M4730 590 l0 -231 153 3 152 3 0 40 0 40 -102 3 -103 3 0 49 0 50 85
0 85 0 0 40 0 40 -85 0 -85 0 0 50 0 49 103 3 102 3 0 40 0 40 -152 3 -153 3
0 -231z"/>
<path d="M48 685 c-3 -4 18 -77 46 -163 l53 -157 39 -3 40 -3 30 98 30 98 30
-95 30 -95 39 0 40 0 52 150 c28 83 52 156 52 163 1 9 -12 12 -46 10 l-46 -3
-28 -100 c-14 -55 -29 -93 -32 -85 -4 8 -17 53 -30 100 -23 82 -25 85 -56 88
-36 4 -44 -10 -76 -131 -10 -37 -20 -66 -22 -64 -1 2 -15 46 -31 98 l-27 94
-40 3 c-23 2 -43 0 -47 -3z"/>
<path d="M635 681 c-76 -33 -106 -170 -59 -263 37 -72 177 -86 239 -23 32 31
48 97 40 163 -5 42 -14 62 -40 90 -30 33 -37 36 -96 39 -35 1 -73 -1 -84 -6z
m113 -89 c18 -24 15 -122 -5 -144 -21 -24 -48 -23 -73 2 -23 23 -28 116 -7
142 23 30 60 30 85 0z"/>
<path d="M1251 660 c-10 -14 -32 -50 -49 -81 l-32 -57 47 -81 48 -81 47 0 c27
0 48 2 48 5 0 3 -18 37 -40 76 -22 39 -40 75 -40 81 0 6 18 43 40 83 l40 73
-46 4 c-40 3 -48 0 -63 -22z"/>
<path d="M1527 683 c-4 -3 -7 -78 -7 -165 l0 -158 45 0 45 0 0 103 c0 118 12
147 60 147 42 0 50 -23 50 -144 l0 -106 45 0 45 0 0 125 c0 133 -10 174 -49
195 -26 13 -97 13 -124 -1 -16 -9 -22 -9 -25 0 -4 12 -74 16 -85 4z"/>
<path d="M1887 684 c-4 -4 -7 -79 -7 -166 l0 -159 48 3 47 3 0 160 0 160 -40
3 c-23 2 -44 0 -48 -4z"/>
<path d="M2225 665 c-7 -11 -28 -47 -48 -80 l-36 -60 32 -55 c17 -30 38 -67
47 -82 13 -24 21 -28 63 -28 26 0 47 3 47 6 0 3 -19 40 -42 82 l-41 77 41 73
c23 41 42 77 42 80 0 4 -21 7 -46 7 -36 0 -50 -5 -59 -20z"/>
<path d="M2444 680 c-39 -16 -72 -67 -79 -123 -20 -157 85 -242 227 -185 46
18 72 72 72 148 0 77 -17 116 -63 147 -36 24 -114 31 -157 13z m114 -88 c6 -9
12 -40 12 -69 0 -79 -46 -117 -92 -76 -22 19 -26 120 -5 145 23 30 60 30 85 0z"/>
<path d="M2900 525 l0 -165 45 0 45 0 0 165 0 165 -45 0 -45 0 0 -165z"/>
<path d="M3124 674 c-48 -24 -69 -68 -69 -149 1 -110 36 -156 131 -170 29 -5
50 0 84 17 25 13 45 29 45 36 0 7 -14 22 -31 33 -28 17 -33 18 -44 4 -17 -20
-53 -19 -73 3 -21 23 -24 134 -4 149 24 19 45 21 70 8 21 -11 29 -10 56 7 17
11 31 24 31 28 0 5 -15 18 -34 29 -40 25 -117 28 -162 5z"/>
<path d="M3474 672 c-32 -22 -15 -78 22 -70 14 2 19 12 19 38 0 35 -17 49 -41
32z"/>
<path d="M3580 660 c-16 -30 -3 -60 25 -60 18 0 26 7 31 25 12 46 -35 75 -56
35z"/>
<path d="M3701 666 c-21 -25 -10 -61 18 -61 31 0 50 28 35 53 -15 23 -38 26
-53 8z"/>
<path d="M3471 476 c-15 -18 2 -56 25 -56 19 0 30 29 17 48 -14 22 -28 25 -42
8z"/>
<path d="M3589 474 c-9 -11 -10 -20 -2 -32 24 -40 65 -12 43 29 -13 23 -23 24
-41 3z"/>
<path d="M3709 474 c-9 -11 -10 -20 -2 -32 24 -40 65 -12 43 29 -13 23 -23 24
-41 3z"/>
<path d="M3504 307 c-7 -20 3 -37 22 -37 18 0 18 24 -1 40 -12 10 -16 9 -21
-3z"/>
<path d="M3622 294 c2 -11 11 -20 22 -22 13 -3 17 1 14 14 -2 11 -11 20 -22
22 -13 3 -17 -1 -14 -14z"/>
<path d="M3737 304 c-9 -10 12 -34 30 -34 19 0 12 34 -8 38 -8 1 -18 0 -22 -4z"/>
<path d="M3552 161 c2 -7 7 -12 11 -12 12 1 9 15 -3 20 -7 2 -11 -2 -8 -8z"/>
<path d="M3672 161 c2 -7 7 -12 11 -12 12 1 9 15 -3 20 -7 2 -11 -2 -8 -8z"/>
<path d="M3790 155 c7 -8 16 -12 21 -9 13 8 1 24 -18 24 -13 0 -13 -3 -3 -15z"/>
</g>
</svg>
